<svg xmlns="http://www.w3.org/2000/svg" xmlns:xlink="http://www.w3.org/1999/xlink" xmlns:lucid="lucid" width="1240" height="1160"><g transform="translate(-160 -51.59999999999991)" lucid:page-tab-id="0_0"><path d="M180 71.6h240v60H180z" fill="none"/><use xlink:href="#a" transform="matrix(1,0,0,1,180,71.59999999999991) translate(58.574999999999996 33.6)"/><use xlink:href="#b" transform="matrix(1,0,0,1,180,71.59999999999991) translate(136.425 33.6)"/><path d="M479.75 679.75c0 10.9-8.84 19.75-19.75 19.75-10.9 0-19.75-8.84-19.75-19.75 0-10.9 8.84-19.75 19.75-19.75 10.9 0 19.75 8.84 19.75 19.75z" stroke="#000" stroke-width="2" fill="#fff"/><path d="M460 699.5v55.3l40 63.2m-40-63.2L420 818m0-98.75h80" stroke="#000" stroke-width="2" fill="none"/><path d="M420 660h80v180h-80z" fill="none"/><use xlink:href="#c" transform="matrix(1,0,0,1,340,818) translate(99.025 14.6)"/><path d="M980 271.6c0 33.14-35.82 60-80 60s-80-26.86-80-60 35.82-60 80-60 80 26.86 80 60z" stroke="#000" stroke-width="2" fill="#a3d977"/><use xlink:href="#d" transform="matrix(1,0,0,1,820,211.5999999999999) translate(31.729999999999997 63.15)"/><use xlink:href="#e" transform="matrix(1,0,0,1,820,211.5999999999999) translate(75.28 63.15)"/><path d="M500.58 718.92l317.84-446.5" stroke="#000" stroke-width="2" fill="none"/><path d="M501.4 719.48l-2.33 3.28-1.62-1.16.95-1.35h1.6v-1.78zM819 271.6v.4l.04.88-1.45-1.02 1.46-2.06z"/><path d="M981.94 271.26l216.12-79.32" stroke="#000" stroke-width="2" fill="none"/><path d="M982.3 272.2l-1.33.48.03-1.07v-.4l-.03-.66.65-.23zM1199 191.6v.4l.03.66-.65.23-.7-1.9 1.35-.48z"/><path d="M1360 191.6c0 33.14-35.82 60-80 60s-80-26.86-80-60 35.82-60 80-60 80 26.86 80 60z" stroke="#000" stroke-width="2" fill="#a3d977"/><use xlink:href="#d" transform="matrix(1,0,0,1,1200,131.5999999999999) translate(18.755000000000003 51.9)"/><use xlink:href="#f" transform="matrix(1,0,0,1,1200,131.5999999999999) translate(62.30500000000001 51.9)"/><use xlink:href="#g" transform="matrix(1,0,0,1,1200,131.5999999999999) translate(120.305 51.9)"/><use xlink:href="#h" transform="matrix(1,0,0,1,1200,131.5999999999999) translate(25.555 73.5)"/><use xlink:href="#i" transform="matrix(1,0,0,1,1200,131.5999999999999) translate(40.555 73.5)"/><use xlink:href="#j" transform="matrix(1,0,0,1,1200,131.5999999999999) translate(105.455 73.5)"/><path d="M981.95 271.9l216.1 69.4" stroke="#000" stroke-width="2" fill="none"/><path d="M982.28 270.96l-.6 1.9-.7-.22.02-1.03v-.4l-.03-.66zM1199.03 340.56l-.03 1.03v.4l.03.66-1.3-.42.6-1.9z"/><path d="M1360 341.6c0 33.14-35.82 60-80 60s-80-26.86-80-60 35.82-60 80-60 80 26.86 80 60z" stroke="#000" stroke-width="2" fill="#a3d977"/><use xlink:href="#d" transform="matrix(1,0,0,1,1200,281.5999999999999) translate(18.755000000000003 51.9)"/><use xlink:href="#f" transform="matrix(1,0,0,1,1200,281.5999999999999) translate(62.30500000000001 51.9)"/><use xlink:href="#g" transform="matrix(1,0,0,1,1200,281.5999999999999) translate(120.305 51.9)"/><use xlink:href="#k" transform="matrix(1,0,0,1,1200,281.5999999999999) translate(38.58 73.5)"/><use xlink:href="#l" transform="matrix(1,0,0,1,1200,281.5999999999999) translate(63.58 73.5)"/><path d="M500.8 719.15l317.4-226.97" stroke="#000" stroke-width="2" fill="none"/><path d="M501.42 719.95l-3.28 2.34-1.16-1.63.58-.42H500v-1.75l.25-.18zM819 491.6v.4l.03.8-.28.2-1.17-1.62 1.46-1.04z"/><path d="M980 491.6c0 33.14-35.82 60-80 60s-80-26.86-80-60 35.82-60 80-60 80 26.86 80 60z" stroke="#000" stroke-width="2" fill="#a3d977"/><use xlink:href="#m" transform="matrix(1,0,0,1,820,431.5999999999999) translate(9.554999999999987 63.15)"/><use xlink:href="#n" transform="matrix(1,0,0,1,820,431.5999999999999) translate(71.505 63.15)"/><use xlink:href="#e" transform="matrix(1,0,0,1,820,431.5999999999999) translate(97.455 63.15)"/><path d="M991.45 492.6H982v-2h9.45zm28.36 0h-18.9v-2h18.9zm20.75 0h-11.3v-2h11.3zm121.04 0h-18.9v-2h18.9zm18.9 0h-9.45v-2h9.45z"/><path d="M982.03 492.6h-1.06l.03-1v-.4l-.03-.6h1.06zM1195.76 491.6l-14.26 4.64v-9.28z"/><path d="M1199 491.6l-18.5 6v-12zm-16.5 3.26l10.03-3.26-10.03-3.26z"/><use xlink:href="#o" transform="matrix(1,0,0,1,1040.55,480.7999999999999) translate(0 14.4)"/><path d="M1360 491.6c0 33.14-35.82 60-80 60s-80-26.86-80-60 35.82-60 80-60 80 26.86 80 60z" stroke="#000" stroke-width="2" fill="#ff8f80"/><use xlink:href="#p" transform="matrix(1,0,0,1,1200,431.5999999999999) translate(25.055 63.15)"/><use xlink:href="#q" transform="matrix(1,0,0,1,1200,431.5999999999999) translate(59.055 63.15)"/><use xlink:href="#e" transform="matrix(1,0,0,1,1200,431.5999999999999) translate(81.955 63.15)"/><path d="M500.98 719.52l317.04-67.7" stroke="#000" stroke-width="2" fill="none"/><path d="M501.2 720.5l-3.92.84-.24-1.1H500v-1.53l.8-.16zM819 651.6v.4l.03.62-.82.17-.4-1.96 1.23-.27z"/><path d="M980 651.6c0 33.14-35.82 60-80 60s-80-26.86-80-60 35.82-60 80-60 80 26.86 80 60z" stroke="#000" stroke-width="2" fill="#a3d977"/><use xlink:href="#r" transform="matrix(1,0,0,1,820,591.5999999999999) translate(27.005000000000003 63.15)"/><use xlink:href="#k" transform="matrix(1,0,0,1,820,591.5999999999999) translate(64.005 63.15)"/><use xlink:href="#s" transform="matrix(1,0,0,1,820,591.5999999999999) translate(89.005 63.15)"/><path d="M504.1 719.34l313.94 91.98M504.13 719.35l-.98-.3" stroke="#000" stroke-width="2" fill="none"/><path d="M819.03 810.57l-.03 1.02v.4l.03.65-1.3-.38.57-1.92z"/><path d="M980 811.6c0 33.14-35.82 60-80 60s-80-26.86-80-60 35.82-60 80-60 80 26.86 80 60z" stroke="#000" stroke-width="2" fill="#a3d977"/><use xlink:href="#t" transform="matrix(1,0,0,1,820,751.5999999999999) translate(27.529999999999994 63.15)"/><use xlink:href="#k" transform="matrix(1,0,0,1,820,751.5999999999999) translate(63.48 63.15)"/><use xlink:href="#s" transform="matrix(1,0,0,1,820,751.5999999999999) translate(88.48 63.15)"/><path d="M500.77 720.37l317.46 260.6" stroke="#000" stroke-width="2" fill="none"/><path d="M501.43 719.6l-1.27 1.56-1.1-.9h.94v-1.82zm-4.1-1.35l1-1.2 1.44 1.2zM819.04 980.34l-.04 1.25v.4l.04.93-1.47-1.2 1.27-1.55z"/><path d="M980 981.6c0 33.14-35.82 60-80 60s-80-26.86-80-60 35.82-60 80-60 80 26.86 80 60z" stroke="#000" stroke-width="2" fill="#a3d977"/><g><use xlink:href="#u" transform="matrix(1,0,0,1,820,921.5999999999999) translate(17.054999999999986 63.15)"/><use xlink:href="#k" transform="matrix(1,0,0,1,820,921.5999999999999) translate(73.955 63.15)"/><use xlink:href="#s" transform="matrix(1,0,0,1,820,921.5999999999999) translate(98.955 63.15)"/></g><path d="M500.6 720.52l317.8 410.3" stroke="#000" stroke-width="2" fill="none"/><path d="M501.42 719.93l-1.58 1.23-.7-.9h.86v-2h-2.4l-.23-.3 1.58-1.2zM819 1131.6v.4l.05 1.3-1.47-1.9 1.46-1.13z"/><path d="M980 1131.6c0 33.14-35.82 60-80 60s-80-26.86-80-60 35.82-60 80-60 80 26.86 80 60z" stroke="#000" stroke-width="2" fill="#a3d977"/><g><use xlink:href="#r" transform="matrix(1,0,0,1,820,1071.6) translate(17.005000000000003 51.9)"/><use xlink:href="#v" transform="matrix(1,0,0,1,820,1071.6) translate(54.005 51.9)"/><use xlink:href="#w" transform="matrix(1,0,0,1,820,1071.6) translate(103.005 51.9)"/><use xlink:href="#x" transform="matrix(1,0,0,1,820,1071.6) translate(123.005 51.9)"/><use xlink:href="#s" transform="matrix(1,0,0,1,820,1071.6) translate(58.005 73.5)"/></g><path d="M1009.9 1132.6h-10.4v-2h10.4zm31.22 0h-20.8v-2h20.8zm156.07 0h-20.82v-2h20.8zm20.8 0h-10.4v-2h10.4zm-52.02 0H1158v-2h7.98zM998.5 1136.24l-14.26-4.64 14.26-4.64z"/><path d="M999.5 1137.6l-18.5-6 18.5-6zm-12.03-6l10.03 3.26v-6.52zM1219 1131.6v.4l.03.6h-1.06v-2h1.06z"/><g><use xlink:href="#y" transform="matrix(1,0,0,1,1042,1120.8) translate(0 14.4)"/></g><path d="M1380 1131.6c0 33.14-35.82 60-80 60s-80-26.86-80-60 35.82-60 80-60 80 26.86 80 60z" stroke="#000" stroke-width="2" fill="#ffdf71"/><g><use xlink:href="#z" transform="matrix(1,0,0,1,1220,1071.6) translate(11.529999999999996 63.15)"/><use xlink:href="#A" transform="matrix(1,0,0,1,1220,1071.6) translate(74.48 63.15)"/><use xlink:href="#s" transform="matrix(1,0,0,1,1220,1071.6) translate(104.48 63.15)"/></g><path d="M1244.34 1085.8l-1.25 1.55-7.6-6.08 1.23-1.56zm-15.2-12.18l-1.26 1.57-15.2-12.18 1.24-1.56zm-22.82-18.25l-1.25 1.56-15.2-12.16 1.24-1.56zm-22.82-18.25l-1.25 1.56-15.2-12.16 1.24-1.57zm-22.8-18.25l-1.26 1.56-15.2-12.16 1.24-1.57zm-22.82-18.25l-1.25 1.56-15.2-12.17 1.24-1.55zm-24.07-16.7l-1.9-1.52h3.14zm-25.7-23.12h-3.2l-9.1-7.3 1.24-1.55zm-18.66-14.93l-1.25 1.56-15.22-12.17 1.25-1.56zm-22.82-18.25l-1.25 1.56-15.2-12.17 1.24-1.55zm-22.8-18.25l-1.26 1.56-15.2-12.17 1.24-1.56zM1001 891.12l-1.25 1.56-15.2-12.17 1.24-1.55zm-22.82-18.26l-1.25 1.57-7.6-6.1 1.25-1.55zM972.07 863.32l-5.8 7.24-8.24-12.53z"/><path d="M973.7 862.87l-7.5 9.4L955.5 856zm-7.35 6l4.08-5.1-9.87-3.72zM1245.36 1086.6l-1.73 1.2-.56-.46 1.25-1.57z"/><g><use xlink:href="#y" transform="matrix(1,0,0,1,1042,960.8) translate(0 14.4)"/></g><defs><path d="M212-179c-10-28-35-45-73-45-59 0-87 40-87 99 0 60 29 101 89 101 43 0 62-24 78-52l27 14C228-24 195 4 139 4 59 4 22-46 18-125c-6-104 99-153 187-111 19 9 31 26 39 46" id="B"/><path d="M141-36C126-15 110 5 73 4 37 3 15-17 15-53c-1-64 63-63 125-63 3-35-9-54-41-54-24 1-41 7-42 31l-33-3c5-37 33-52 76-52 45 0 72 20 72 64v82c-1 20 7 32 28 27v20c-31 9-61-2-59-35zM48-53c0 20 12 33 32 33 41-3 63-29 60-74-43 2-92-5-92 41" id="C"/><path d="M24 0v-261h32V0H24" id="D"/><path d="M100-194c63 0 86 42 84 106H49c0 40 14 67 53 68 26 1 43-12 49-29l28 8c-11 28-37 45-77 45C44 4 14-33 15-96c1-61 26-98 85-98zm52 81c6-60-76-77-97-28-3 7-6 17-6 28h103" id="E"/><path d="M117-194c89-4 53 116 60 194h-32v-121c0-31-8-49-39-48C34-167 62-67 57 0H25l-1-190h30c1 10-1 24 2 32 11-22 29-35 61-36" id="F"/><path d="M85-194c31 0 48 13 60 33l-1-100h32l1 261h-30c-2-10 0-23-3-31C134-8 116 4 85 4 32 4 16-35 15-94c0-66 23-100 70-100zm9 24c-40 0-46 34-46 75 0 40 6 74 45 74 42 0 51-32 51-76 0-42-9-74-50-73" id="G"/><path d="M114-163C36-179 61-72 57 0H25l-1-190h30c1 12-1 29 2 39 6-27 23-49 58-41v29" id="H"/><g id="a"><use transform="matrix(0.05,0,0,0.05,0,0)" xlink:href="#B"/><use transform="matrix(0.05,0,0,0.05,12.950000000000001,0)" xlink:href="#C"/><use transform="matrix(0.05,0,0,0.05,22.950000000000003,0)" xlink:href="#D"/><use transform="matrix(0.05,0,0,0.05,26.900000000000002,0)" xlink:href="#E"/><use transform="matrix(0.05,0,0,0.05,36.900000000000006,0)" xlink:href="#F"/><use transform="matrix(0.05,0,0,0.05,46.900000000000006,0)" xlink:href="#G"/><use transform="matrix(0.05,0,0,0.05,56.900000000000006,0)" xlink:href="#C"/><use transform="matrix(0.05,0,0,0.05,66.9,0)" xlink:href="#H"/></g><path d="M115-194c55 1 70 41 70 98S169 2 115 4C84 4 66-9 55-30l1 105H24l-1-265h31l2 30c10-21 28-34 59-34zm-8 174c40 0 45-34 45-75s-6-73-45-74c-42 0-51 32-51 76 0 43 10 73 51 73" id="I"/><path d="M177-190C167-65 218 103 67 71c-23-6-38-20-44-43l32-5c15 47 100 32 89-28v-30C133-14 115 1 83 1 29 1 15-40 15-95c0-56 16-97 71-98 29-1 48 16 59 35 1-10 0-23 2-32h30zM94-22c36 0 50-32 50-73 0-42-14-75-50-75-39 0-46 34-46 75s6 73 46 73" id="J"/><path d="M33-154v-36h34v36H33zM33 0v-36h34V0H33" id="K"/><g id="b"><use transform="matrix(0.05,0,0,0.05,0,0)" xlink:href="#I"/><use transform="matrix(0.05,0,0,0.05,10,0)" xlink:href="#C"/><use transform="matrix(0.05,0,0,0.05,20,0)" xlink:href="#J"/><use transform="matrix(0.05,0,0,0.05,30,0)" xlink:href="#E"/><use transform="matrix(0.05,0,0,0.05,40,0)" xlink:href="#K"/></g><path d="M205 0l-28-72H64L36 0H1l101-248h38L239 0h-34zm-38-99l-47-123c-12 45-31 82-46 123h93" id="L"/><path d="M96-169c-40 0-48 33-48 73s9 75 48 75c24 0 41-14 43-38l32 2c-6 37-31 61-74 61-59 0-76-41-82-99-10-93 101-131 147-64 4 7 5 14 7 22l-32 3c-4-21-16-35-41-35" id="M"/><path d="M59-47c-2 24 18 29 38 22v24C64 9 27 4 27-40v-127H5v-23h24l9-43h21v43h35v23H59v120" id="N"/><path d="M100-194c62-1 85 37 85 99 1 63-27 99-86 99S16-35 15-95c0-66 28-99 85-99zM99-20c44 1 53-31 53-75 0-43-8-75-51-75s-53 32-53 75 10 74 51 75" id="O"/><g id="c"><use transform="matrix(0.05,0,0,0.05,0,0)" xlink:href="#L"/><use transform="matrix(0.05,0,0,0.05,12,0)" xlink:href="#M"/><use transform="matrix(0.05,0,0,0.05,21,0)" xlink:href="#N"/><use transform="matrix(0.05,0,0,0.05,26,0)" xlink:href="#O"/><use transform="matrix(0.05,0,0,0.05,36,0)" xlink:href="#H"/></g><path d="M137 0h-34L2-248h35l83 218 83-218h36" id="P"/><path d="M24-231v-30h32v30H24zM24 0v-190h32V0H24" id="Q"/><path d="M206 0h-36l-40-164L89 0H53L-1-190h32L70-26l43-164h34l41 164 42-164h31" id="R"/><g id="d"><use transform="matrix(0.05,0,0,0.05,0,0)" xlink:href="#P"/><use transform="matrix(0.05,0,0,0.05,11.65,0)" xlink:href="#Q"/><use transform="matrix(0.05,0,0,0.05,15.600000000000001,0)" xlink:href="#E"/><use transform="matrix(0.05,0,0,0.05,25.6,0)" xlink:href="#R"/></g><path d="M108 0H70L1-190h34L89-25l56-165h34" id="S"/><path d="M135-143c-3-34-86-38-87 0 15 53 115 12 119 90S17 21 10-45l28-5c4 36 97 45 98 0-10-56-113-15-118-90-4-57 82-63 122-42 12 7 21 19 24 35" id="T"/><g id="e"><use transform="matrix(0.05,0,0,0.05,0,0)" xlink:href="#E"/><use transform="matrix(0.05,0,0,0.05,10,0)" xlink:href="#S"/><use transform="matrix(0.05,0,0,0.05,19,0)" xlink:href="#E"/><use transform="matrix(0.05,0,0,0.05,29,0)" xlink:href="#F"/><use transform="matrix(0.05,0,0,0.05,39,0)" xlink:href="#N"/><use transform="matrix(0.05,0,0,0.05,44,0)" xlink:href="#T"/></g><g id="f"><use transform="matrix(0.05,0,0,0.05,0,0)" xlink:href="#E"/><use transform="matrix(0.05,0,0,0.05,10,0)" xlink:href="#S"/><use transform="matrix(0.05,0,0,0.05,19,0)" xlink:href="#E"/><use transform="matrix(0.05,0,0,0.05,29,0)" xlink:href="#F"/><use transform="matrix(0.05,0,0,0.05,39,0)" xlink:href="#N"/><use transform="matrix(0.05,0,0,0.05,44,0)" xlink:href="#T"/></g><path d="M101-234c-31-9-42 10-38 44h38v23H63V0H32v-167H5v-23h27c-7-52 17-82 69-68v24" id="U"/><g id="g"><use transform="matrix(0.05,0,0,0.05,0,0)" xlink:href="#U"/><use transform="matrix(0.05,0,0,0.05,5,0)" xlink:href="#O"/><use transform="matrix(0.05,0,0,0.05,15,0)" xlink:href="#H"/></g><use transform="matrix(0.05,0,0,0.05,0,0)" xlink:href="#C" id="h"/><g id="i"><use transform="matrix(0.05,0,0,0.05,0,0)" xlink:href="#T"/><use transform="matrix(0.05,0,0,0.05,9,0)" xlink:href="#I"/><use transform="matrix(0.05,0,0,0.05,19,0)" xlink:href="#E"/><use transform="matrix(0.05,0,0,0.05,29,0)" xlink:href="#M"/><use transform="matrix(0.05,0,0,0.05,38,0)" xlink:href="#Q"/><use transform="matrix(0.05,0,0,0.05,41.95,0)" xlink:href="#U"/><use transform="matrix(0.05,0,0,0.05,46.95,0)" xlink:href="#Q"/><use transform="matrix(0.05,0,0,0.05,50.900000000000006,0)" xlink:href="#M"/></g><path d="M179-190L93 31C79 59 56 82 12 73V49c39 6 53-20 64-50L1-190h34L92-34l54-156h33" id="V"/><g id="j"><use transform="matrix(0.05,0,0,0.05,0,0)" xlink:href="#G"/><use transform="matrix(0.05,0,0,0.05,10,0)" xlink:href="#C"/><use transform="matrix(0.05,0,0,0.05,20,0)" xlink:href="#V"/></g><g id="k"><use transform="matrix(0.05,0,0,0.05,0,0)" xlink:href="#C"/><use transform="matrix(0.05,0,0,0.05,10,0)" xlink:href="#F"/></g><g id="l"><use transform="matrix(0.05,0,0,0.05,0,0)" xlink:href="#Q"/><use transform="matrix(0.05,0,0,0.05,3.95,0)" xlink:href="#F"/><use transform="matrix(0.05,0,0,0.05,13.949999999999998,0)" xlink:href="#N"/><use transform="matrix(0.05,0,0,0.05,18.95,0)" xlink:href="#E"/><use transform="matrix(0.05,0,0,0.05,28.950000000000003,0)" xlink:href="#H"/><use transform="matrix(0.05,0,0,0.05,34.9,0)" xlink:href="#S"/><use transform="matrix(0.05,0,0,0.05,43.9,0)" xlink:href="#C"/><use transform="matrix(0.05,0,0,0.05,53.900000000000006,0)" xlink:href="#D"/></g><path d="M185-189c-5-48-123-54-124 2 14 75 158 14 163 119 3 78-121 87-175 55-17-10-28-26-33-46l33-7c5 56 141 63 141-1 0-78-155-14-162-118-5-82 145-84 179-34 5 7 8 16 11 25" id="W"/><path d="M106-169C34-169 62-67 57 0H25v-261h32l-1 103c12-21 28-36 61-36 89 0 53 116 60 194h-32v-121c2-32-8-49-39-48" id="X"/><g id="m"><use transform="matrix(0.05,0,0,0.05,0,0)" xlink:href="#W"/><use transform="matrix(0.05,0,0,0.05,12,0)" xlink:href="#E"/><use transform="matrix(0.05,0,0,0.05,22,0)" xlink:href="#C"/><use transform="matrix(0.05,0,0,0.05,32,0)" xlink:href="#H"/><use transform="matrix(0.05,0,0,0.05,37.95,0)" xlink:href="#M"/><use transform="matrix(0.05,0,0,0.05,46.95,0)" xlink:href="#X"/></g><g id="n"><use transform="matrix(0.05,0,0,0.05,0,0)" xlink:href="#U"/><use transform="matrix(0.05,0,0,0.05,5,0)" xlink:href="#O"/><use transform="matrix(0.05,0,0,0.05,15,0)" xlink:href="#H"/></g><path d="M18-100v-36l175-74v27L42-118l151 64v27" id="Y"/><path d="M84 4C-5 8 30-112 23-190h32v120c0 31 7 50 39 49 72-2 45-101 50-169h31l1 190h-30c-1-10 1-25-2-33-11 22-28 36-60 37" id="Z"/><path d="M18-27v-27l151-64-151-65v-27l175 74v36" id="aa"/><g id="o"><use transform="matrix(0.05,0,0,0.05,0,0)" xlink:href="#Y"/><use transform="matrix(0.05,0,0,0.05,10.5,0)" xlink:href="#Y"/><use transform="matrix(0.05,0,0,0.05,21,0)" xlink:href="#Q"/><use transform="matrix(0.05,0,0,0.05,24.95,0)" xlink:href="#F"/><use transform="matrix(0.05,0,0,0.05,34.95,0)" xlink:href="#M"/><use transform="matrix(0.05,0,0,0.05,43.95,0)" xlink:href="#D"/><use transform="matrix(0.05,0,0,0.05,47.900000000000006,0)" xlink:href="#Z"/><use transform="matrix(0.05,0,0,0.05,57.900000000000006,0)" xlink:href="#G"/><use transform="matrix(0.05,0,0,0.05,67.9,0)" xlink:href="#E"/><use transform="matrix(0.05,0,0,0.05,77.9,0)" xlink:href="#aa"/><use transform="matrix(0.05,0,0,0.05,88.4,0)" xlink:href="#aa"/></g><path d="M143 4C61 4 22-44 18-125c-5-107 100-154 193-111 17 8 29 25 37 43l-32 9c-13-25-37-40-76-40-61 0-88 39-88 99 0 61 29 100 91 101 35 0 62-11 79-27v-45h-74v-28h105v86C228-13 192 4 143 4" id="ab"/><g id="p"><use transform="matrix(0.05,0,0,0.05,0,0)" xlink:href="#ab"/><use transform="matrix(0.05,0,0,0.05,14,0)" xlink:href="#E"/><use transform="matrix(0.05,0,0,0.05,24,0)" xlink:href="#N"/></g><g id="q"><use transform="matrix(0.05,0,0,0.05,0,0)" xlink:href="#C"/><use transform="matrix(0.05,0,0,0.05,10,0)" xlink:href="#D"/><use transform="matrix(0.05,0,0,0.05,13.949999999999998,0)" xlink:href="#D"/></g><g id="r"><use transform="matrix(0.05,0,0,0.05,0,0)" xlink:href="#L"/><use transform="matrix(0.05,0,0,0.05,12,0)" xlink:href="#G"/><use transform="matrix(0.05,0,0,0.05,22,0)" xlink:href="#G"/></g><g id="s"><use transform="matrix(0.05,0,0,0.05,0,0)" xlink:href="#E"/><use transform="matrix(0.05,0,0,0.05,10,0)" xlink:href="#S"/><use transform="matrix(0.05,0,0,0.05,19,0)" xlink:href="#E"/><use transform="matrix(0.05,0,0,0.05,29,0)" xlink:href="#F"/><use transform="matrix(0.05,0,0,0.05,39,0)" xlink:href="#N"/></g><path d="M30 0v-248h187v28H63v79h144v27H63v87h162V0H30" id="ac"/><g id="t"><use transform="matrix(0.05,0,0,0.05,0,0)" xlink:href="#ac"/><use transform="matrix(0.05,0,0,0.05,12,0)" xlink:href="#G"/><use transform="matrix(0.05,0,0,0.05,22,0)" xlink:href="#Q"/><use transform="matrix(0.05,0,0,0.05,25.950000000000003,0)" xlink:href="#N"/></g><path d="M30-248c118-7 216 8 213 122C240-48 200 0 122 0H30v-248zM63-27c89 8 146-16 146-99s-60-101-146-95v194" id="ad"/><g id="u"><use transform="matrix(0.05,0,0,0.05,0,0)" xlink:href="#ad"/><use transform="matrix(0.05,0,0,0.05,12.950000000000001,0)" xlink:href="#E"/><use transform="matrix(0.05,0,0,0.05,22.950000000000003,0)" xlink:href="#D"/><use transform="matrix(0.05,0,0,0.05,26.900000000000002,0)" xlink:href="#E"/><use transform="matrix(0.05,0,0,0.05,36.900000000000006,0)" xlink:href="#N"/><use transform="matrix(0.05,0,0,0.05,41.900000000000006,0)" xlink:href="#E"/></g><g id="v"><use transform="matrix(0.05,0,0,0.05,0,0)" xlink:href="#F"/><use transform="matrix(0.05,0,0,0.05,10,0)" xlink:href="#O"/><use transform="matrix(0.05,0,0,0.05,20,0)" xlink:href="#N"/><use transform="matrix(0.05,0,0,0.05,25,0)" xlink:href="#E"/><use transform="matrix(0.05,0,0,0.05,35,0)" xlink:href="#T"/></g><g id="w"><use transform="matrix(0.05,0,0,0.05,0,0)" xlink:href="#N"/><use transform="matrix(0.05,0,0,0.05,5,0)" xlink:href="#O"/></g><g id="x"><use transform="matrix(0.05,0,0,0.05,0,0)" xlink:href="#C"/><use transform="matrix(0.05,0,0,0.05,10,0)" xlink:href="#F"/></g><path d="M141 0L90-78 38 0H4l68-98-65-92h35l48 74 47-74h35l-64 92 68 98h-35" id="ae"/><g id="y"><use transform="matrix(0.05,0,0,0.05,0,0)" xlink:href="#Y"/><use transform="matrix(0.05,0,0,0.05,10.5,0)" xlink:href="#Y"/><use transform="matrix(0.05,0,0,0.05,21,0)" xlink:href="#E"/><use transform="matrix(0.05,0,0,0.05,31,0)" xlink:href="#ae"/><use transform="matrix(0.05,0,0,0.05,40,0)" xlink:href="#N"/><use transform="matrix(0.05,0,0,0.05,45,0)" xlink:href="#E"/><use transform="matrix(0.05,0,0,0.05,55,0)" xlink:href="#F"/><use transform="matrix(0.05,0,0,0.05,65,0)" xlink:href="#G"/><use transform="matrix(0.05,0,0,0.05,75,0)" xlink:href="#E"/><use transform="matrix(0.05,0,0,0.05,85,0)" xlink:href="#G"/><use transform="matrix(0.05,0,0,0.05,95,0)" xlink:href="#aa"/><use transform="matrix(0.05,0,0,0.05,105.5,0)" xlink:href="#aa"/></g><path d="M232-93c-1 65-40 97-104 97C67 4 28-28 28-90v-158h33c8 89-33 224 67 224 102 0 64-133 71-224h33v155" id="af"/><g id="z"><use transform="matrix(0.05,0,0,0.05,0,0)" xlink:href="#af"/><use transform="matrix(0.05,0,0,0.05,12.950000000000001,0)" xlink:href="#I"/><use transform="matrix(0.05,0,0,0.05,22.950000000000003,0)" xlink:href="#G"/><use transform="matrix(0.05,0,0,0.05,32.95,0)" xlink:href="#C"/><use transform="matrix(0.05,0,0,0.05,42.95,0)" xlink:href="#N"/><use transform="matrix(0.05,0,0,0.05,47.95,0)" xlink:href="#E"/></g><g id="A"><use transform="matrix(0.05,0,0,0.05,0,0)" xlink:href="#N"/><use transform="matrix(0.05,0,0,0.05,5,0)" xlink:href="#X"/><use transform="matrix(0.05,0,0,0.05,15,0)" xlink:href="#E"/></g></defs></g></svg>