<svg xmlns="http://www.w3.org/2000/svg" xmlns:xlink="http://www.w3.org/1999/xlink" xmlns:lucid="lucid" width="1139.33" height="930.67"><g transform="translate(-240.66666666666663 -69.33333333333331)" lucid:page-tab-id="0_0"><path d="M260.67 89.33H560v60H260.67z" fill="none"/><use xlink:href="#a" transform="matrix(1,0,0,1,260.66666666666663,89.33333333333331) translate(9.849999999999994 33.6)"/><use xlink:href="#b" transform="matrix(1,0,0,1,260.66666666666663,89.33333333333331) translate(94.35 33.6)"/><use xlink:href="#c" transform="matrix(1,0,0,1,260.66666666666663,89.33333333333331) translate(137.25 33.6)"/><use xlink:href="#d" transform="matrix(1,0,0,1,260.66666666666663,89.33333333333331) translate(172.25 33.6)"/><use xlink:href="#e" transform="matrix(1,0,0,1,260.66666666666663,89.33333333333331) translate(236.15 33.6)"/><path d="M579.75 619.75c0 10.9-8.84 19.75-19.75 19.75-10.9 0-19.75-8.84-19.75-19.75 0-10.9 8.84-19.75 19.75-19.75 10.9 0 19.75 8.84 19.75 19.75z" stroke="#000" stroke-width="2" fill="#fff"/><path d="M560 639.5v55.3l40 63.2m-40-63.2L520 758m0-98.75h80" stroke="#000" stroke-width="2" fill="none"/><path d="M520 600h80v180h-80z" fill="none"/><use xlink:href="#f" transform="matrix(1,0,0,1,440,758) translate(101.05 14.6)"/><path d="M960 400c0 33.14-35.82 60-80 60s-80-26.86-80-60 35.82-60 80-60 80 26.86 80 60z" stroke="#000" stroke-width="2" fill="#a3d977"/><use xlink:href="#g" transform="matrix(1,0,0,1,800,340) translate(58.029999999999994 63.15)"/><path d="M960 660c0 33.14-35.82 60-80 60s-80-26.86-80-60 35.82-60 80-60 80 26.86 80 60z" stroke="#000" stroke-width="2" fill="#a3d977"/><use xlink:href="#h" transform="matrix(1,0,0,1,800,600) translate(49.05499999999999 63.15)"/><path d="M600.73 659.32l225.86-212.3" stroke="#000" stroke-width="2" fill="none"/><path d="M601.43 660.03l-2.93 2.75-1.37-1.45 1.14-1.08H600v-1.62l.06-.06zM828.02 446.8l.16.1-.93.85-1.37-1.45.6-.55z"/><path d="M601 660h197" stroke="#000" stroke-width="2" fill="none"/><path d="M601.03 661H597v-.75h3V659h1.03zM799 660v.4l.03.6h-1.06v-2h1.06zM972.4 661H962v-2h10.4zm31.22 0h-20.8v-2h20.8zm26.93 0h-16.53v-2h16.53zm129.14 0h-20.82v-2h20.8zm20.8 0h-10.4v-2h10.4z"/><path d="M962.03 661h-1.06l.03-1v-.4l-.03-.6h1.06z"/><path d="M1195.76 660l-14.26 4.64v-9.28z" fill="#fff"/><path d="M1199 660l-18.5 6v-12zm-16.5 3.26l10.03-3.26-10.03-3.26z"/><use xlink:href="#i" transform="matrix(1,0,0,1,1030.55,649.2) translate(0 14.4)"/><path d="M1360 660c0 33.14-35.82 60-80 60s-80-26.86-80-60 35.82-60 80-60 80 26.86 80 60z" stroke="#000" stroke-width="2" fill="#ff8f80"/><use xlink:href="#j" transform="matrix(1,0,0,1,1200,600) translate(18.630000000000003 63.15)"/><use xlink:href="#k" transform="matrix(1,0,0,1,1200,600) translate(68.53 63.15)"/><use xlink:href="#l" transform="matrix(1,0,0,1,1200,600) translate(98.53 63.15)"/><path d="M960 920c0 33.14-35.82 60-80 60s-80-26.86-80-60 35.82-60 80-60 80 26.86 80 60z" stroke="#000" stroke-width="2" fill="#a3d977"/><g><use xlink:href="#m" transform="matrix(1,0,0,1,800,860) translate(20.979999999999997 51.9)"/><use xlink:href="#n" transform="matrix(1,0,0,1,800,860) translate(64.53 51.9)"/><use xlink:href="#o" transform="matrix(1,0,0,1,800,860) translate(60.005 73.5)"/></g><path d="M600.6 661.04L798.4 919.2" stroke="#000" stroke-width="2" fill="none"/><path d="M601.42 660.46l-1.6 1.2-1.08-1.4H600v-1.65zm-3.74-2.2l1.3-1 .75 1zM799 920v.4l.05 1.3-1.47-1.9 1.46-1.12z"/><defs><path d="M266 0h-40l-56-210L115 0H75L2-248h35L96-30l15-64 43-154h32l59 218 59-218h35" id="p"/><path d="M100-194c63 0 86 42 84 106H49c0 40 14 67 53 68 26 1 43-12 49-29l28 8c-11 28-37 45-77 45C44 4 14-33 15-96c1-61 26-98 85-98zm52 81c6-60-76-77-97-28-3 7-6 17-6 28h103" id="q"/><path d="M24 0v-261h32V0H24" id="r"/><path d="M96-169c-40 0-48 33-48 73s9 75 48 75c24 0 41-14 43-38l32 2c-6 37-31 61-74 61-59 0-76-41-82-99-10-93 101-131 147-64 4 7 5 14 7 22l-32 3c-4-21-16-35-41-35" id="s"/><path d="M100-194c62-1 85 37 85 99 1 63-27 99-86 99S16-35 15-95c0-66 28-99 85-99zM99-20c44 1 53-31 53-75 0-43-8-75-51-75s-53 32-53 75 10 74 51 75" id="t"/><path d="M210-169c-67 3-38 105-44 169h-31v-121c0-29-5-50-35-48C34-165 62-65 56 0H25l-1-190h30c1 10-1 24 2 32 10-44 99-50 107 0 11-21 27-35 58-36 85-2 47 119 55 194h-31v-121c0-29-5-49-35-48" id="u"/><path d="M68-38c1 34 0 65-14 84H32c9-13 17-26 17-46H33v-38h35" id="v"/><g id="a"><use transform="matrix(0.05,0,0,0.05,0,0)" xlink:href="#p"/><use transform="matrix(0.05,0,0,0.05,16.599999999999998,0)" xlink:href="#q"/><use transform="matrix(0.05,0,0,0.05,26.599999999999994,0)" xlink:href="#r"/><use transform="matrix(0.05,0,0,0.05,30.549999999999997,0)" xlink:href="#s"/><use transform="matrix(0.05,0,0,0.05,39.55,0)" xlink:href="#t"/><use transform="matrix(0.05,0,0,0.05,49.55,0)" xlink:href="#u"/><use transform="matrix(0.05,0,0,0.05,64.5,0)" xlink:href="#q"/><use transform="matrix(0.05,0,0,0.05,74.5,0)" xlink:href="#v"/></g><path d="M177-190C167-65 218 103 67 71c-23-6-38-20-44-43l32-5c15 47 100 32 89-28v-30C133-14 115 1 83 1 29 1 15-40 15-95c0-56 16-97 71-98 29-1 48 16 59 35 1-10 0-23 2-32h30zM94-22c36 0 50-32 50-73 0-42-14-75-50-75-39 0-46 34-46 75s6 73 46 73" id="w"/><path d="M24-231v-30h32v30H24zM24 0v-190h32V0H24" id="x"/><path d="M117-194c89-4 53 116 60 194h-32v-121c0-31-8-49-39-48C34-167 62-67 57 0H25l-1-190h30c1 10-1 24 2 32 11-22 29-35 61-36" id="y"/><g id="b"><use transform="matrix(0.05,0,0,0.05,0,0)" xlink:href="#r"/><use transform="matrix(0.05,0,0,0.05,3.95,0)" xlink:href="#t"/><use transform="matrix(0.05,0,0,0.05,13.949999999999998,0)" xlink:href="#w"/><use transform="matrix(0.05,0,0,0.05,23.95,0)" xlink:href="#x"/><use transform="matrix(0.05,0,0,0.05,27.899999999999995,0)" xlink:href="#y"/></g><path d="M141-36C126-15 110 5 73 4 37 3 15-17 15-53c-1-64 63-63 125-63 3-35-9-54-41-54-24 1-41 7-42 31l-33-3c5-37 33-52 76-52 45 0 72 20 72 64v82c-1 20 7 32 28 27v20c-31 9-61-2-59-35zM48-53c0 20 12 33 32 33 41-3 63-29 60-74-43 2-92-5-92 41" id="z"/><path d="M85-194c31 0 48 13 60 33l-1-100h32l1 261h-30c-2-10 0-23-3-31C134-8 116 4 85 4 32 4 16-35 15-94c0-66 23-100 70-100zm9 24c-40 0-46 34-46 75 0 40 6 74 45 74 42 0 51-32 51-76 0-42-9-74-50-73" id="A"/><g id="c"><use transform="matrix(0.05,0,0,0.05,0,0)" xlink:href="#z"/><use transform="matrix(0.05,0,0,0.05,10,0)" xlink:href="#y"/><use transform="matrix(0.05,0,0,0.05,20,0)" xlink:href="#A"/></g><path d="M135-143c-3-34-86-38-87 0 15 53 115 12 119 90S17 21 10-45l28-5c4 36 97 45 98 0-10-56-113-15-118-90-4-57 82-63 122-42 12 7 21 19 24 35" id="B"/><path d="M16-82v-28h88v28H16" id="C"/><path d="M84 4C-5 8 30-112 23-190h32v120c0 31 7 50 39 49 72-2 45-101 50-169h31l1 190h-30c-1-10 1-25-2-33-11 22-28 36-60 37" id="D"/><path d="M115-194c55 1 70 41 70 98S169 2 115 4C84 4 66-9 55-30l1 105H24l-1-265h31l2 30c10-21 28-34 59-34zm-8 174c40 0 45-34 45-75s-6-73-45-74c-42 0-51 32-51 76 0 43 10 73 51 73" id="E"/><g id="d"><use transform="matrix(0.05,0,0,0.05,0,0)" xlink:href="#B"/><use transform="matrix(0.05,0,0,0.05,9,0)" xlink:href="#x"/><use transform="matrix(0.05,0,0,0.05,12.949999999999998,0)" xlink:href="#w"/><use transform="matrix(0.05,0,0,0.05,22.95,0)" xlink:href="#y"/><use transform="matrix(0.05,0,0,0.05,32.95,0)" xlink:href="#C"/><use transform="matrix(0.05,0,0,0.05,38.900000000000006,0)" xlink:href="#D"/><use transform="matrix(0.05,0,0,0.05,48.900000000000006,0)" xlink:href="#E"/></g><path d="M33-154v-36h34v36H33zM33 0v-36h34V0H33" id="F"/><g id="e"><use transform="matrix(0.05,0,0,0.05,0,0)" xlink:href="#E"/><use transform="matrix(0.05,0,0,0.05,10,0)" xlink:href="#z"/><use transform="matrix(0.05,0,0,0.05,20,0)" xlink:href="#w"/><use transform="matrix(0.05,0,0,0.05,30,0)" xlink:href="#q"/><use transform="matrix(0.05,0,0,0.05,40,0)" xlink:href="#B"/><use transform="matrix(0.05,0,0,0.05,49,0)" xlink:href="#F"/></g><path d="M232-93c-1 65-40 97-104 97C67 4 28-28 28-90v-158h33c8 89-33 224 67 224 102 0 64-133 71-224h33v155" id="G"/><path d="M114-163C36-179 61-72 57 0H25l-1-190h30c1 12-1 29 2 39 6-27 23-49 58-41v29" id="H"/><g id="f"><use transform="matrix(0.05,0,0,0.05,0,0)" xlink:href="#G"/><use transform="matrix(0.05,0,0,0.05,12.950000000000001,0)" xlink:href="#B"/><use transform="matrix(0.05,0,0,0.05,21.950000000000003,0)" xlink:href="#q"/><use transform="matrix(0.05,0,0,0.05,31.950000000000003,0)" xlink:href="#H"/></g><path d="M30 0v-248h33v221h125V0H30" id="I"/><g id="g"><use transform="matrix(0.05,0,0,0.05,0,0)" xlink:href="#I"/><use transform="matrix(0.05,0,0,0.05,10,0)" xlink:href="#t"/><use transform="matrix(0.05,0,0,0.05,20,0)" xlink:href="#w"/><use transform="matrix(0.05,0,0,0.05,30,0)" xlink:href="#x"/><use transform="matrix(0.05,0,0,0.05,33.95,0)" xlink:href="#y"/></g><path d="M185-189c-5-48-123-54-124 2 14 75 158 14 163 119 3 78-121 87-175 55-17-10-28-26-33-46l33-7c5 56 141 63 141-1 0-78-155-14-162-118-5-82 145-84 179-34 5 7 8 16 11 25" id="J"/><g id="h"><use transform="matrix(0.05,0,0,0.05,0,0)" xlink:href="#J"/><use transform="matrix(0.05,0,0,0.05,12,0)" xlink:href="#x"/><use transform="matrix(0.05,0,0,0.05,15.949999999999998,0)" xlink:href="#w"/><use transform="matrix(0.05,0,0,0.05,25.950000000000003,0)" xlink:href="#y"/><use transform="matrix(0.05,0,0,0.05,35.95,0)" xlink:href="#C"/><use transform="matrix(0.05,0,0,0.05,41.900000000000006,0)" xlink:href="#D"/><use transform="matrix(0.05,0,0,0.05,51.900000000000006,0)" xlink:href="#E"/></g><path d="M18-100v-36l175-74v27L42-118l151 64v27" id="K"/><path d="M18-27v-27l151-64-151-65v-27l175 74v36" id="L"/><g id="i"><use transform="matrix(0.05,0,0,0.05,0,0)" xlink:href="#K"/><use transform="matrix(0.05,0,0,0.05,10.5,0)" xlink:href="#K"/><use transform="matrix(0.05,0,0,0.05,21,0)" xlink:href="#x"/><use transform="matrix(0.05,0,0,0.05,24.95,0)" xlink:href="#y"/><use transform="matrix(0.05,0,0,0.05,34.95,0)" xlink:href="#s"/><use transform="matrix(0.05,0,0,0.05,43.95,0)" xlink:href="#r"/><use transform="matrix(0.05,0,0,0.05,47.900000000000006,0)" xlink:href="#D"/><use transform="matrix(0.05,0,0,0.05,57.900000000000006,0)" xlink:href="#A"/><use transform="matrix(0.05,0,0,0.05,67.9,0)" xlink:href="#q"/><use transform="matrix(0.05,0,0,0.05,77.9,0)" xlink:href="#L"/><use transform="matrix(0.05,0,0,0.05,88.4,0)" xlink:href="#L"/></g><path d="M137 0h-34L2-248h35l83 218 83-218h36" id="M"/><path d="M101-234c-31-9-42 10-38 44h38v23H63V0H32v-167H5v-23h27c-7-52 17-82 69-68v24" id="N"/><path d="M179-190L93 31C79 59 56 82 12 73V49c39 6 53-20 64-50L1-190h34L92-34l54-156h33" id="O"/><g id="j"><use transform="matrix(0.05,0,0,0.05,0,0)" xlink:href="#M"/><use transform="matrix(0.05,0,0,0.05,11,0)" xlink:href="#q"/><use transform="matrix(0.05,0,0,0.05,21,0)" xlink:href="#H"/><use transform="matrix(0.05,0,0,0.05,26.950000000000003,0)" xlink:href="#x"/><use transform="matrix(0.05,0,0,0.05,30.899999999999995,0)" xlink:href="#N"/><use transform="matrix(0.05,0,0,0.05,35.9,0)" xlink:href="#O"/></g><path d="M59-47c-2 24 18 29 38 22v24C64 9 27 4 27-40v-127H5v-23h24l9-43h21v43h35v23H59v120" id="P"/><path d="M106-169C34-169 62-67 57 0H25v-261h32l-1 103c12-21 28-36 61-36 89 0 53 116 60 194h-32v-121c2-32-8-49-39-48" id="Q"/><g id="k"><use transform="matrix(0.05,0,0,0.05,0,0)" xlink:href="#P"/><use transform="matrix(0.05,0,0,0.05,5,0)" xlink:href="#Q"/><use transform="matrix(0.05,0,0,0.05,15,0)" xlink:href="#q"/></g><g id="l"><use transform="matrix(0.05,0,0,0.05,0,0)" xlink:href="#q"/><use transform="matrix(0.05,0,0,0.05,10,0)" xlink:href="#u"/><use transform="matrix(0.05,0,0,0.05,24.950000000000003,0)" xlink:href="#z"/><use transform="matrix(0.05,0,0,0.05,34.95,0)" xlink:href="#x"/><use transform="matrix(0.05,0,0,0.05,38.900000000000006,0)" xlink:href="#r"/></g><path d="M206 0h-36l-40-164L89 0H53L-1-190h32L70-26l43-164h34l41 164 42-164h31" id="R"/><g id="m"><use transform="matrix(0.05,0,0,0.05,0,0)" xlink:href="#M"/><use transform="matrix(0.05,0,0,0.05,11.65,0)" xlink:href="#x"/><use transform="matrix(0.05,0,0,0.05,15.600000000000001,0)" xlink:href="#q"/><use transform="matrix(0.05,0,0,0.05,25.6,0)" xlink:href="#R"/></g><g id="n"><use transform="matrix(0.05,0,0,0.05,0,0)" xlink:href="#p"/><use transform="matrix(0.05,0,0,0.05,16.599999999999998,0)" xlink:href="#q"/><use transform="matrix(0.05,0,0,0.05,26.599999999999994,0)" xlink:href="#r"/><use transform="matrix(0.05,0,0,0.05,30.549999999999997,0)" xlink:href="#s"/><use transform="matrix(0.05,0,0,0.05,39.55,0)" xlink:href="#t"/><use transform="matrix(0.05,0,0,0.05,49.55,0)" xlink:href="#u"/><use transform="matrix(0.05,0,0,0.05,64.5,0)" xlink:href="#q"/></g><g id="o"><use transform="matrix(0.05,0,0,0.05,0,0)" xlink:href="#E"/><use transform="matrix(0.05,0,0,0.05,10,0)" xlink:href="#z"/><use transform="matrix(0.05,0,0,0.05,20,0)" xlink:href="#w"/><use transform="matrix(0.05,0,0,0.05,30,0)" xlink:href="#q"/></g></defs></g></svg>