<svg xmlns="http://www.w3.org/2000/svg" xmlns:xlink="http://www.w3.org/1999/xlink" xmlns:lucid="lucid" width="1062.47" height="2788"><g transform="translate(-120 -12)" lucid:page-tab-id="0_0"><path d="M140 800h240v60H140z" fill="none"/><use xlink:href="#a" transform="matrix(1,0,0,1,140,800) translate(40.05 33.6)"/><use xlink:href="#b" transform="matrix(1,0,0,1,140,800) translate(96.95 33.6)"/><use xlink:href="#c" transform="matrix(1,0,0,1,140,800) translate(154.95 33.6)"/><path d="M419.75 479.75c0 10.9-8.84 19.75-19.75 19.75-10.9 0-19.75-8.84-19.75-19.75 0-10.9 8.84-19.75 19.75-19.75 10.9 0 19.75 8.84 19.75 19.75z" stroke="#000" stroke-width="2" fill="#fff"/><path d="M400 499.5v55.3l40 63.2m-40-63.2L360 618m0-98.75h80" stroke="#000" stroke-width="2" fill="none"/><path d="M360 460h80v180h-80z" fill="none"/><use xlink:href="#d" transform="matrix(1,0,0,1,280,618) translate(101.05 14.6)"/><path d="M780 240c0 33.14-35.82 60-80 60s-80-26.86-80-60 35.82-60 80-60 80 26.86 80 60z" stroke="#000" stroke-width="2" fill="#a3d977"/><use xlink:href="#e" transform="matrix(1,0,0,1,620,180) translate(31.729999999999997 63.15)"/><use xlink:href="#f" transform="matrix(1,0,0,1,620,180) translate(75.28 63.15)"/><path d="M431.42 517.53l220.17-227.5M431.44 517.5l-2.8 2.9" stroke="#000" stroke-width="2" fill="none"/><path d="M652.47 289.4l.74.38-.9.95-1.44-1.4.54-.55z"/><path d="M782 240h176" stroke="#000" stroke-width="2" fill="none"/><path d="M782.03 241h-1.06l.03-1v-.4l-.03-.6h1.06zM959 240v.4l.03.6h-1.06v-2h1.06z"/><path d="M1120 240c0 33.14-35.82 60-80 60s-80-26.86-80-60 35.82-60 80-60 80 26.86 80 60z" stroke="#000" stroke-width="2" fill="#a3d977"/><use xlink:href="#e" transform="matrix(1,0,0,1,960,180) translate(18.755000000000003 51.9)"/><use xlink:href="#g" transform="matrix(1,0,0,1,960,180) translate(62.30500000000001 51.9)"/><use xlink:href="#h" transform="matrix(1,0,0,1,960,180) translate(120.305 51.9)"/><use xlink:href="#i" transform="matrix(1,0,0,1,960,180) translate(25.555 73.5)"/><use xlink:href="#j" transform="matrix(1,0,0,1,960,180) translate(40.555 73.5)"/><use xlink:href="#k" transform="matrix(1,0,0,1,960,180) translate(105.455 73.5)"/><path d="M780 460c0 33.14-35.82 60-80 60s-80-26.86-80-60 35.82-60 80-60 80 26.86 80 60z" stroke="#000" stroke-width="2" fill="#a3d977"/><use xlink:href="#l" transform="matrix(1,0,0,1,620,400) translate(26.054999999999993 51.9)"/><use xlink:href="#m" transform="matrix(1,0,0,1,620,400) translate(88.005 51.9)"/><use xlink:href="#n" transform="matrix(1,0,0,1,620,400) translate(113.95500000000001 51.9)"/><use xlink:href="#o" transform="matrix(1,0,0,1,620,400) translate(58.005 73.5)"/><path d="M792.57 461H782v-2h10.57zm27.98 0h-17.42v-2h17.42zm119.95 0h-10.57v-2h10.57z"/><path d="M782.03 461h-1.06l.03-1v-.4l-.03-.6h1.06zM955.76 460l-14.26 4.64v-9.28z"/><path d="M959 460l-18.5 6v-12zm-16.5 3.26l10.03-3.26-10.03-3.26z"/><use xlink:href="#p" transform="matrix(1,0,0,1,820.55,449.2) translate(0 14.4)"/><path d="M1120 460c0 33.14-35.82 60-80 60s-80-26.86-80-60 35.82-60 80-60 80 26.86 80 60z" stroke="#000" stroke-width="2" fill="#ff8f80"/><use xlink:href="#q" transform="matrix(1,0,0,1,960,400) translate(25.055 63.15)"/><use xlink:href="#r" transform="matrix(1,0,0,1,960,400) translate(59.055 63.15)"/><use xlink:href="#f" transform="matrix(1,0,0,1,960,400) translate(81.955 63.15)"/><path d="M431.7 518l187.2-48.84M431.72 518l-3.9 1" stroke="#000" stroke-width="2" fill="none"/><path d="M619.9 469.1l.18.8-.96.24-.5-1.94 1.08-.28z"/><path d="M431.52 518.86L618.2 661M431.54 518.87l-3.2-2.44" stroke="#000" stroke-width="2" fill="none"/><path d="M619.04 660.37l-.04 1.22v.4l.04.88-1.46-1.1 1.2-1.6z"/><path d="M780 661.6c0 33.14-35.82 60-80 60s-80-26.86-80-60 35.82-60 80-60 80 26.86 80 60z" stroke="#000" stroke-width="2" fill="#a3d977"/><use xlink:href="#e" transform="matrix(1,0,0,1,620,601.5999999999999) translate(45.73 51.9)"/><use xlink:href="#s" transform="matrix(1,0,0,1,620,601.5999999999999) translate(89.28 51.9)"/><use xlink:href="#t" transform="matrix(1,0,0,1,620,601.5999999999999) translate(17.15499999999998 73.5)"/><use xlink:href="#u" transform="matrix(1,0,0,1,620,601.5999999999999) translate(83.955 73.5)"/><path d="M792.57 662.6H782v-2h10.57zm27.98 0h-17.42v-2h17.42zm119.95 0h-10.57v-2h10.57z"/><path d="M782.03 662.6h-1.06l.03-1v-.4l-.03-.6h1.06zM955.76 661.6l-14.26 4.64v-9.28z"/><path d="M959 661.6l-18.5 6v-12zm-16.5 3.26l10.03-3.26-10.03-3.26z"/><use xlink:href="#p" transform="matrix(1,0,0,1,820.55,650.8) translate(0 14.4)"/><path d="M1120 661.6c0 33.14-35.82 60-80 60s-80-26.86-80-60 35.82-60 80-60 80 26.86 80 60z" stroke="#000" stroke-width="2" fill="#ff8f80"/><use xlink:href="#q" transform="matrix(1,0,0,1,960,601.5999999999999) translate(25.055 51.9)"/><use xlink:href="#r" transform="matrix(1,0,0,1,960,601.5999999999999) translate(59.055 51.9)"/><use xlink:href="#v" transform="matrix(1,0,0,1,960,601.5999999999999) translate(81.955 51.9)"/><use xlink:href="#m" transform="matrix(1,0,0,1,960,601.5999999999999) translate(45.029999999999994 73.5)"/><use xlink:href="#i" transform="matrix(1,0,0,1,960,601.5999999999999) translate(70.97999999999999 73.5)"/><use xlink:href="#k" transform="matrix(1,0,0,1,960,601.5999999999999) translate(85.97999999999999 73.5)"/><path d="M419.75 1199.75c0 10.9-8.84 19.75-19.75 19.75-10.9 0-19.75-8.84-19.75-19.75 0-10.9 8.84-19.75 19.75-19.75 10.9 0 19.75 8.84 19.75 19.75z" stroke="#000" stroke-width="2" fill="#fff"/><path d="M400 1219.5v55.3l40 63.2m-40-63.2l-40 63.2m0-98.75h80" stroke="#000" stroke-width="2" fill="none"/><path d="M360 1180h80v180h-80z" fill="none"/><use xlink:href="#w" transform="matrix(1,0,0,1,280,1338) translate(101.05 14.6)"/><path d="M780 960c0 33.14-35.82 60-80 60s-80-26.86-80-60 35.82-60 80-60 80 26.86 80 60z" stroke="#000" stroke-width="2" fill="#a3d977"/><use xlink:href="#x" transform="matrix(1,0,0,1,620,900) translate(31.729999999999997 63.15)"/><use xlink:href="#y" transform="matrix(1,0,0,1,620,900) translate(75.28 63.15)"/><path d="M431.42 1237.53l220.17-227.5M431.44 1237.5l-2.8 2.9" stroke="#000" stroke-width="2" fill="none"/><path d="M652.47 1009.4l.74.38-.9.95-1.44-1.4.54-.55z"/><path d="M780 1180c0 33.14-35.82 60-80 60s-80-26.86-80-60 35.82-60 80-60 80 26.86 80 60z" stroke="#000" stroke-width="2" fill="#a3d977"/><use xlink:href="#z" transform="matrix(1,0,0,1,620,1120) translate(26.054999999999993 51.9)"/><use xlink:href="#A" transform="matrix(1,0,0,1,620,1120) translate(88.005 51.9)"/><use xlink:href="#B" transform="matrix(1,0,0,1,620,1120) translate(113.95500000000001 51.9)"/><use xlink:href="#C" transform="matrix(1,0,0,1,620,1120) translate(58.005 73.5)"/><path d="M792.57 1181H782v-2h10.57zm27.98 0h-17.42v-2h17.42zm119.95 0h-10.57v-2h10.57z"/><path d="M782.03 1181h-1.06l.03-1v-.4l-.03-.6h1.06zM955.76 1180l-14.26 4.64v-9.28z"/><path d="M959 1180l-18.5 6v-12zm-16.5 3.26l10.03-3.26-10.03-3.26z"/><use xlink:href="#D" transform="matrix(1,0,0,1,820.55,1169.2) translate(0 14.4)"/><path d="M1120 1180c0 33.14-35.82 60-80 60s-80-26.86-80-60 35.82-60 80-60 80 26.86 80 60z" stroke="#000" stroke-width="2" fill="#ff8f80"/><use xlink:href="#E" transform="matrix(1,0,0,1,960,1120) translate(25.055 63.15)"/><use xlink:href="#F" transform="matrix(1,0,0,1,960,1120) translate(59.055 63.15)"/><use xlink:href="#y" transform="matrix(1,0,0,1,960,1120) translate(81.955 63.15)"/><path d="M431.7 1238l187.2-48.84M431.72 1238l-3.9 1" stroke="#000" stroke-width="2" fill="none"/><path d="M619.9 1189.1l.18.8-.96.24-.5-1.94 1.08-.28z"/><path d="M431.52 1238.86l186.7 143.73M431.54 1238.88l-3.2-2.46" stroke="#000" stroke-width="2" fill="none"/><path d="M619.04 1381.97l-.04 1.22v.4l.04.9-1.46-1.13 1.22-1.6z"/><path d="M140 32h240v60H140z" fill="none"/><use xlink:href="#G" transform="matrix(1,0,0,1,140,32) translate(61.449999999999996 33.6)"/><use xlink:href="#c" transform="matrix(1,0,0,1,140,32) translate(133.55 33.6)"/><path d="M780 1383.2c0 33.14-35.82 60-80 60s-80-26.86-80-60 35.82-60 80-60 80 26.86 80 60z" stroke="#000" stroke-width="2" fill="#a3d977"/><use xlink:href="#H" transform="matrix(1,0,0,1,620,1323.1999999999998) translate(27.005000000000003 63.15)"/><use xlink:href="#I" transform="matrix(1,0,0,1,620,1323.1999999999998) translate(64.005 63.15)"/><use xlink:href="#C" transform="matrix(1,0,0,1,620,1323.1999999999998) translate(89.005 63.15)"/><path d="M780 1560c0 33.14-35.82 60-80 60s-80-26.86-80-60 35.82-60 80-60 80 26.86 80 60z" stroke="#000" stroke-width="2" fill="#a3d977"/><use xlink:href="#J" transform="matrix(1,0,0,1,620,1500) translate(27.529999999999994 63.15)"/><use xlink:href="#I" transform="matrix(1,0,0,1,620,1500) translate(63.48 63.15)"/><use xlink:href="#C" transform="matrix(1,0,0,1,620,1500) translate(88.48 63.15)"/><path d="M780 1720c0 33.14-35.82 60-80 60s-80-26.86-80-60 35.82-60 80-60 80 26.86 80 60z" stroke="#000" stroke-width="2" fill="#a3d977"/><use xlink:href="#K" transform="matrix(1,0,0,1,620,1660) translate(17.054999999999986 63.15)"/><use xlink:href="#I" transform="matrix(1,0,0,1,620,1660) translate(73.955 63.15)"/><use xlink:href="#C" transform="matrix(1,0,0,1,620,1660) translate(98.955 63.15)"/><path d="M436.5 1239.12l182 320M436.5 1239.14l-1.98-3.5" stroke="#000" stroke-width="2" fill="none"/><path d="M619 1560v.4l.07 1.75-1.45-2.55 1.42-.8z"/><path d="M618.64 1719.07l-187.55-479.9" stroke="#000" stroke-width="2" fill="none"/><path d="M619 1720v.4l.1 2.62-1.4-3.6 1.33-.53z"/><path d="M431.1 1239.2l-1.47-3.74" stroke="#000" stroke-width="2" fill="none"/><path d="M1140 1560c0 33.14-35.82 60-80 60s-80-26.86-80-60 35.82-60 80-60 80 26.86 80 60z" stroke="#000" stroke-width="2" fill="#ffdf71"/><use xlink:href="#L" transform="matrix(1,0,0,1,980,1500) translate(11.529999999999996 63.15)"/><use xlink:href="#M" transform="matrix(1,0,0,1,980,1500) translate(74.48 63.15)"/><use xlink:href="#C" transform="matrix(1,0,0,1,980,1500) translate(104.48 63.15)"/><path d="M809.42 1561h-9.92v-2h9.92zm12.58 0h-2.66v-2H822zm136.17 0h-19.84v-2h19.84zm19.83 0h-9.92v-2H978zM798.5 1564.64l-14.26-4.64 14.26-4.64z"/><path d="M799.5 1566l-18.5-6 18.5-6zm-12.03-6l10.03 3.26v-6.52zM979 1560v.4l.03.6h-1.06v-2h1.06z"/><use xlink:href="#N" transform="matrix(1,0,0,1,822,1549.2) translate(0 14.4)"/><path d="M140 1920h240v60H140z" fill="none"/><use xlink:href="#O" transform="matrix(1,0,0,1,140,1920) translate(62.525 33.6)"/><use xlink:href="#c" transform="matrix(1,0,0,1,140,1920) translate(132.475 33.6)"/><path d="M419.75 2319.75c0 10.9-8.84 19.75-19.75 19.75-10.9 0-19.75-8.84-19.75-19.75 0-10.9 8.84-19.75 19.75-19.75 10.9 0 19.75 8.84 19.75 19.75z" stroke="#000" stroke-width="2" fill="#fff"/><path d="M400 2339.5v55.3l40 63.2m-40-63.2l-40 63.2m0-98.75h80" stroke="#000" stroke-width="2" fill="none"/><path d="M360 2300h80v180h-80z" fill="none"/><g><use xlink:href="#w" transform="matrix(1,0,0,1,280,2458) translate(101.05 14.6)"/></g><path d="M780 2080c0 33.14-35.82 60-80 60s-80-26.86-80-60 35.82-60 80-60 80 26.86 80 60z" stroke="#000" stroke-width="2" fill="#a3d977"/><g><use xlink:href="#x" transform="matrix(1,0,0,1,620,2020) translate(40.73 63.15)"/><use xlink:href="#P" transform="matrix(1,0,0,1,620,2020) translate(84.28 63.15)"/></g><path d="M431.42 2357.53l220.17-227.5M431.44 2357.5l-2.8 2.9" stroke="#000" stroke-width="2" fill="none"/><path d="M652.47 2129.4l.74.38-.9.95-1.44-1.4.54-.55z"/><path d="M780 2300c0 33.14-35.82 60-80 60s-80-26.86-80-60 35.82-60 80-60 80 26.86 80 60z" stroke="#000" stroke-width="2" fill="#a3d977"/><g><use xlink:href="#J" transform="matrix(1,0,0,1,620,2240) translate(44.529999999999994 63.15)"/><use xlink:href="#P" transform="matrix(1,0,0,1,620,2240) translate(80.47999999999999 63.15)"/></g><path d="M431.7 2358l187.2-48.84M431.72 2358l-3.9 1" stroke="#000" stroke-width="2" fill="none"/><path d="M619.9 2309.1l.18.8-.96.24-.5-1.94 1.08-.28z"/><path d="M431.52 2358.86l186.7 143.73M431.54 2358.88l-3.2-2.46" stroke="#000" stroke-width="2" fill="none"/><path d="M619.04 2501.97l-.04 1.22v.4l.04.9-1.46-1.13 1.22-1.6z"/><path d="M780 2503.2c0 33.14-35.82 60-80 60s-80-26.86-80-60 35.82-60 80-60 80 26.86 80 60z" stroke="#000" stroke-width="2" fill="#a3d977"/><g><use xlink:href="#J" transform="matrix(1,0,0,1,620,2443.2) translate(23.57999999999999 63.15)"/><use xlink:href="#Q" transform="matrix(1,0,0,1,620,2443.2) translate(59.529999999999994 63.15)"/></g><path d="M780 2720c0 33.14-35.82 60-80 60s-80-26.86-80-60 35.82-60 80-60 80 26.86 80 60z" stroke="#000" stroke-width="2" fill="#a3d977"/><g><use xlink:href="#R" transform="matrix(1,0,0,1,620,2660) translate(52.505 63.15)"/></g><path d="M618.54 2719.1L431.2 2359.15" stroke="#000" stroke-width="2" fill="none"/><path d="M619 2720v.4l.08 1.9-1.44-2.75 1.4-.73z"/><path d="M431.2 2359.16l-1.86-3.57" stroke="#000" stroke-width="2" fill="none"/><path d="M1162.47 2503.2c0 33.14-35.82 60-80 60s-80-26.86-80-60 35.82-60 80-60 80 26.86 80 60z" stroke="#000" stroke-width="2" fill="#ffdf71"/><g><use xlink:href="#L" transform="matrix(1,0,0,1,1002.467988408825,2443.2) translate(36.029999999999994 51.9)"/><use xlink:href="#S" transform="matrix(1,0,0,1,1002.467988408825,2443.2) translate(98.98 51.9)"/><use xlink:href="#Q" transform="matrix(1,0,0,1,1002.467988408825,2443.2) translate(41.55499999999999 73.5)"/></g><path d="M1162.47 2291.6c0 33.14-35.82 60-80 60s-80-26.86-80-60 35.82-60 80-60 80 26.86 80 60z" stroke="#000" stroke-width="2" fill="#ffdf71"/><g><use xlink:href="#L" transform="matrix(1,0,0,1,1002.467988408825,2231.6) translate(16.029999999999994 63.15)"/><use xlink:href="#M" transform="matrix(1,0,0,1,1002.467988408825,2231.6) translate(78.98 63.15)"/><use xlink:href="#P" transform="matrix(1,0,0,1,1002.467988408825,2231.6) translate(108.98 63.15)"/></g><path d="M808.33 2292.6h-9.6v-2h9.6zm24.52 0h-14.9v-2h14.9zm148.4 0h-19.2v-2h19.2zm19.22 0h-9.6v-2h9.6zm-48.04 0h-3.58v-2h3.58zM797.72 2296.24l-14.26-4.64 14.26-4.64z"/><path d="M798.72 2297.6l-18.5-6 18.5-6zm-12.03-6l10.02 3.26v-6.52zM1001.47 2291.6v.4l.02.6h-1.06v-2h1.06z"/><g><use xlink:href="#N" transform="matrix(1,0,0,1,832.8452842834847,2280.7999999999997) translate(0 14.4)"/></g><path d="M809.07 2504.2h-9.57v-2h9.57zm24.16 0h-14.6v-2h14.6zm148.1 0H962.2v-2h19.13zm19.14 0h-9.57v-2h9.57zm-47.85 0h-3.4v-2h3.4zM798.5 2507.84l-14.26-4.64 14.26-4.64z"/><path d="M799.5 2509.2l-18.5-6 18.5-6zm-12.03-6l10.03 3.26v-6.52zM1001.47 2503.2v.4l.02.6h-1.06v-2h1.06z"/><g><use xlink:href="#N" transform="matrix(1,0,0,1,833.2339942044125,2492.3999999999996) translate(0 14.4)"/></g><defs><path d="M63-220v92h138v28H63V0H30v-248h175v28H63" id="T"/><path d="M84 4C-5 8 30-112 23-190h32v120c0 31 7 50 39 49 72-2 45-101 50-169h31l1 190h-30c-1-10 1-25-2-33-11 22-28 36-60 37" id="U"/><path d="M59-47c-2 24 18 29 38 22v24C64 9 27 4 27-40v-127H5v-23h24l9-43h21v43h35v23H59v120" id="V"/><path d="M114-163C36-179 61-72 57 0H25l-1-190h30c1 12-1 29 2 39 6-27 23-49 58-41v29" id="W"/><path d="M100-194c63 0 86 42 84 106H49c0 40 14 67 53 68 26 1 43-12 49-29l28 8c-11 28-37 45-77 45C44 4 14-33 15-96c1-61 26-98 85-98zm52 81c6-60-76-77-97-28-3 7-6 17-6 28h103" id="X"/><g id="a"><use transform="matrix(0.05,0,0,0.05,0,0)" xlink:href="#T"/><use transform="matrix(0.05,0,0,0.05,10.950000000000001,0)" xlink:href="#U"/><use transform="matrix(0.05,0,0,0.05,20.950000000000003,0)" xlink:href="#V"/><use transform="matrix(0.05,0,0,0.05,25.950000000000003,0)" xlink:href="#U"/><use transform="matrix(0.05,0,0,0.05,35.95,0)" xlink:href="#W"/><use transform="matrix(0.05,0,0,0.05,41.900000000000006,0)" xlink:href="#X"/></g><path d="M108 0H70L1-190h34L89-25l56-165h34" id="Y"/><path d="M117-194c89-4 53 116 60 194h-32v-121c0-31-8-49-39-48C34-167 62-67 57 0H25l-1-190h30c1 10-1 24 2 32 11-22 29-35 61-36" id="Z"/><path d="M135-143c-3-34-86-38-87 0 15 53 115 12 119 90S17 21 10-45l28-5c4 36 97 45 98 0-10-56-113-15-118-90-4-57 82-63 122-42 12 7 21 19 24 35" id="aa"/><g id="b"><use transform="matrix(0.05,0,0,0.05,0,0)" xlink:href="#X"/><use transform="matrix(0.05,0,0,0.05,10,0)" xlink:href="#Y"/><use transform="matrix(0.05,0,0,0.05,19,0)" xlink:href="#X"/><use transform="matrix(0.05,0,0,0.05,29,0)" xlink:href="#Z"/><use transform="matrix(0.05,0,0,0.05,39,0)" xlink:href="#V"/><use transform="matrix(0.05,0,0,0.05,44,0)" xlink:href="#aa"/></g><path d="M115-194c55 1 70 41 70 98S169 2 115 4C84 4 66-9 55-30l1 105H24l-1-265h31l2 30c10-21 28-34 59-34zm-8 174c40 0 45-34 45-75s-6-73-45-74c-42 0-51 32-51 76 0 43 10 73 51 73" id="ab"/><path d="M141-36C126-15 110 5 73 4 37 3 15-17 15-53c-1-64 63-63 125-63 3-35-9-54-41-54-24 1-41 7-42 31l-33-3c5-37 33-52 76-52 45 0 72 20 72 64v82c-1 20 7 32 28 27v20c-31 9-61-2-59-35zM48-53c0 20 12 33 32 33 41-3 63-29 60-74-43 2-92-5-92 41" id="ac"/><path d="M177-190C167-65 218 103 67 71c-23-6-38-20-44-43l32-5c15 47 100 32 89-28v-30C133-14 115 1 83 1 29 1 15-40 15-95c0-56 16-97 71-98 29-1 48 16 59 35 1-10 0-23 2-32h30zM94-22c36 0 50-32 50-73 0-42-14-75-50-75-39 0-46 34-46 75s6 73 46 73" id="ad"/><path d="M33-154v-36h34v36H33zM33 0v-36h34V0H33" id="ae"/><g id="c"><use transform="matrix(0.05,0,0,0.05,0,0)" xlink:href="#ab"/><use transform="matrix(0.05,0,0,0.05,10,0)" xlink:href="#ac"/><use transform="matrix(0.05,0,0,0.05,20,0)" xlink:href="#ad"/><use transform="matrix(0.05,0,0,0.05,30,0)" xlink:href="#X"/><use transform="matrix(0.05,0,0,0.05,40,0)" xlink:href="#ae"/></g><path d="M232-93c-1 65-40 97-104 97C67 4 28-28 28-90v-158h33c8 89-33 224 67 224 102 0 64-133 71-224h33v155" id="af"/><g id="d"><use transform="matrix(0.05,0,0,0.05,0,0)" xlink:href="#af"/><use transform="matrix(0.05,0,0,0.05,12.950000000000001,0)" xlink:href="#aa"/><use transform="matrix(0.05,0,0,0.05,21.950000000000003,0)" xlink:href="#X"/><use transform="matrix(0.05,0,0,0.05,31.950000000000003,0)" xlink:href="#W"/></g><path d="M137 0h-34L2-248h35l83 218 83-218h36" id="ag"/><path d="M24-231v-30h32v30H24zM24 0v-190h32V0H24" id="ah"/><path d="M206 0h-36l-40-164L89 0H53L-1-190h32L70-26l43-164h34l41 164 42-164h31" id="ai"/><g id="e"><use transform="matrix(0.05,0,0,0.05,0,0)" xlink:href="#ag"/><use transform="matrix(0.05,0,0,0.05,11.65,0)" xlink:href="#ah"/><use transform="matrix(0.05,0,0,0.05,15.600000000000001,0)" xlink:href="#X"/><use transform="matrix(0.05,0,0,0.05,25.6,0)" xlink:href="#ai"/></g><g id="f"><use transform="matrix(0.05,0,0,0.05,0,0)" xlink:href="#X"/><use transform="matrix(0.05,0,0,0.05,10,0)" xlink:href="#Y"/><use transform="matrix(0.05,0,0,0.05,19,0)" xlink:href="#X"/><use transform="matrix(0.05,0,0,0.05,29,0)" xlink:href="#Z"/><use transform="matrix(0.05,0,0,0.05,39,0)" xlink:href="#V"/><use transform="matrix(0.05,0,0,0.05,44,0)" xlink:href="#aa"/></g><g id="g"><use transform="matrix(0.05,0,0,0.05,0,0)" xlink:href="#X"/><use transform="matrix(0.05,0,0,0.05,10,0)" xlink:href="#Y"/><use transform="matrix(0.05,0,0,0.05,19,0)" xlink:href="#X"/><use transform="matrix(0.05,0,0,0.05,29,0)" xlink:href="#Z"/><use transform="matrix(0.05,0,0,0.05,39,0)" xlink:href="#V"/><use transform="matrix(0.05,0,0,0.05,44,0)" xlink:href="#aa"/></g><path d="M101-234c-31-9-42 10-38 44h38v23H63V0H32v-167H5v-23h27c-7-52 17-82 69-68v24" id="aj"/><path d="M100-194c62-1 85 37 85 99 1 63-27 99-86 99S16-35 15-95c0-66 28-99 85-99zM99-20c44 1 53-31 53-75 0-43-8-75-51-75s-53 32-53 75 10 74 51 75" id="ak"/><g id="h"><use transform="matrix(0.05,0,0,0.05,0,0)" xlink:href="#aj"/><use transform="matrix(0.05,0,0,0.05,5,0)" xlink:href="#ak"/><use transform="matrix(0.05,0,0,0.05,15,0)" xlink:href="#W"/></g><use transform="matrix(0.05,0,0,0.05,0,0)" xlink:href="#ac" id="i"/><path d="M96-169c-40 0-48 33-48 73s9 75 48 75c24 0 41-14 43-38l32 2c-6 37-31 61-74 61-59 0-76-41-82-99-10-93 101-131 147-64 4 7 5 14 7 22l-32 3c-4-21-16-35-41-35" id="al"/><g id="j"><use transform="matrix(0.05,0,0,0.05,0,0)" xlink:href="#aa"/><use transform="matrix(0.05,0,0,0.05,9,0)" xlink:href="#ab"/><use transform="matrix(0.05,0,0,0.05,19,0)" xlink:href="#X"/><use transform="matrix(0.05,0,0,0.05,29,0)" xlink:href="#al"/><use transform="matrix(0.05,0,0,0.05,38,0)" xlink:href="#ah"/><use transform="matrix(0.05,0,0,0.05,41.95,0)" xlink:href="#aj"/><use transform="matrix(0.05,0,0,0.05,46.95,0)" xlink:href="#ah"/><use transform="matrix(0.05,0,0,0.05,50.900000000000006,0)" xlink:href="#al"/></g><path d="M85-194c31 0 48 13 60 33l-1-100h32l1 261h-30c-2-10 0-23-3-31C134-8 116 4 85 4 32 4 16-35 15-94c0-66 23-100 70-100zm9 24c-40 0-46 34-46 75 0 40 6 74 45 74 42 0 51-32 51-76 0-42-9-74-50-73" id="am"/><path d="M179-190L93 31C79 59 56 82 12 73V49c39 6 53-20 64-50L1-190h34L92-34l54-156h33" id="an"/><g id="k"><use transform="matrix(0.05,0,0,0.05,0,0)" xlink:href="#am"/><use transform="matrix(0.05,0,0,0.05,10,0)" xlink:href="#ac"/><use transform="matrix(0.05,0,0,0.05,20,0)" xlink:href="#an"/></g><path d="M185-189c-5-48-123-54-124 2 14 75 158 14 163 119 3 78-121 87-175 55-17-10-28-26-33-46l33-7c5 56 141 63 141-1 0-78-155-14-162-118-5-82 145-84 179-34 5 7 8 16 11 25" id="ao"/><path d="M106-169C34-169 62-67 57 0H25v-261h32l-1 103c12-21 28-36 61-36 89 0 53 116 60 194h-32v-121c2-32-8-49-39-48" id="ap"/><g id="l"><use transform="matrix(0.05,0,0,0.05,0,0)" xlink:href="#ao"/><use transform="matrix(0.05,0,0,0.05,12,0)" xlink:href="#X"/><use transform="matrix(0.05,0,0,0.05,22,0)" xlink:href="#ac"/><use transform="matrix(0.05,0,0,0.05,32,0)" xlink:href="#W"/><use transform="matrix(0.05,0,0,0.05,37.95,0)" xlink:href="#al"/><use transform="matrix(0.05,0,0,0.05,46.95,0)" xlink:href="#ap"/></g><g id="m"><use transform="matrix(0.05,0,0,0.05,0,0)" xlink:href="#aj"/><use transform="matrix(0.05,0,0,0.05,5,0)" xlink:href="#ak"/><use transform="matrix(0.05,0,0,0.05,15,0)" xlink:href="#W"/></g><g id="n"><use transform="matrix(0.05,0,0,0.05,0,0)" xlink:href="#ac"/><use transform="matrix(0.05,0,0,0.05,10,0)" xlink:href="#Z"/></g><g id="o"><use transform="matrix(0.05,0,0,0.05,0,0)" xlink:href="#X"/><use transform="matrix(0.05,0,0,0.05,10,0)" xlink:href="#Y"/><use transform="matrix(0.05,0,0,0.05,19,0)" xlink:href="#X"/><use transform="matrix(0.05,0,0,0.05,29,0)" xlink:href="#Z"/><use transform="matrix(0.05,0,0,0.05,39,0)" xlink:href="#V"/></g><path d="M18-100v-36l175-74v27L42-118l151 64v27" id="aq"/><path d="M24 0v-261h32V0H24" id="ar"/><path d="M18-27v-27l151-64-151-65v-27l175 74v36" id="as"/><g id="p"><use transform="matrix(0.05,0,0,0.05,0,0)" xlink:href="#aq"/><use transform="matrix(0.05,0,0,0.05,10.5,0)" xlink:href="#aq"/><use transform="matrix(0.05,0,0,0.05,21,0)" xlink:href="#ah"/><use transform="matrix(0.05,0,0,0.05,24.95,0)" xlink:href="#Z"/><use transform="matrix(0.05,0,0,0.05,34.95,0)" xlink:href="#ar"/><use transform="matrix(0.05,0,0,0.05,38.900000000000006,0)" xlink:href="#al"/><use transform="matrix(0.05,0,0,0.05,47.900000000000006,0)" xlink:href="#U"/><use transform="matrix(0.05,0,0,0.05,57.900000000000006,0)" xlink:href="#am"/><use transform="matrix(0.05,0,0,0.05,67.9,0)" xlink:href="#X"/><use transform="matrix(0.05,0,0,0.05,77.9,0)" xlink:href="#as"/><use transform="matrix(0.05,0,0,0.05,88.4,0)" xlink:href="#as"/></g><path d="M143 4C61 4 22-44 18-125c-5-107 100-154 193-111 17 8 29 25 37 43l-32 9c-13-25-37-40-76-40-61 0-88 39-88 99 0 61 29 100 91 101 35 0 62-11 79-27v-45h-74v-28h105v86C228-13 192 4 143 4" id="at"/><g id="q"><use transform="matrix(0.05,0,0,0.05,0,0)" xlink:href="#at"/><use transform="matrix(0.05,0,0,0.05,14,0)" xlink:href="#X"/><use transform="matrix(0.05,0,0,0.05,24,0)" xlink:href="#V"/></g><g id="r"><use transform="matrix(0.05,0,0,0.05,0,0)" xlink:href="#ac"/><use transform="matrix(0.05,0,0,0.05,10,0)" xlink:href="#ar"/><use transform="matrix(0.05,0,0,0.05,13.949999999999998,0)" xlink:href="#ar"/></g><g id="s"><use transform="matrix(0.05,0,0,0.05,0,0)" xlink:href="#V"/><use transform="matrix(0.05,0,0,0.05,5,0)" xlink:href="#ap"/><use transform="matrix(0.05,0,0,0.05,15,0)" xlink:href="#X"/></g><path d="M210-169c-67 3-38 105-44 169h-31v-121c0-29-5-50-35-48C34-165 62-65 56 0H25l-1-190h30c1 10-1 24 2 32 10-44 99-50 107 0 11-21 27-35 58-36 85-2 47 119 55 194h-31v-121c0-29-5-49-35-48" id="au"/><g id="t"><use transform="matrix(0.05,0,0,0.05,0,0)" xlink:href="#V"/><use transform="matrix(0.05,0,0,0.05,5,0)" xlink:href="#ah"/><use transform="matrix(0.05,0,0,0.05,8.95,0)" xlink:href="#au"/><use transform="matrix(0.05,0,0,0.05,23.9,0)" xlink:href="#X"/><use transform="matrix(0.05,0,0,0.05,33.9,0)" xlink:href="#ar"/><use transform="matrix(0.05,0,0,0.05,37.85,0)" xlink:href="#ah"/><use transform="matrix(0.05,0,0,0.05,41.800000000000004,0)" xlink:href="#Z"/><use transform="matrix(0.05,0,0,0.05,51.800000000000004,0)" xlink:href="#X"/></g><g id="u"><use transform="matrix(0.05,0,0,0.05,0,0)" xlink:href="#ad"/><use transform="matrix(0.05,0,0,0.05,10,0)" xlink:href="#W"/><use transform="matrix(0.05,0,0,0.05,15.949999999999998,0)" xlink:href="#ac"/><use transform="matrix(0.05,0,0,0.05,25.950000000000003,0)" xlink:href="#ab"/><use transform="matrix(0.05,0,0,0.05,35.95,0)" xlink:href="#ap"/><use transform="matrix(0.05,0,0,0.05,45.95,0)" xlink:href="#ah"/><use transform="matrix(0.05,0,0,0.05,49.900000000000006,0)" xlink:href="#al"/></g><g id="v"><use transform="matrix(0.05,0,0,0.05,0,0)" xlink:href="#X"/><use transform="matrix(0.05,0,0,0.05,10,0)" xlink:href="#Y"/><use transform="matrix(0.05,0,0,0.05,19,0)" xlink:href="#X"/><use transform="matrix(0.05,0,0,0.05,29,0)" xlink:href="#Z"/><use transform="matrix(0.05,0,0,0.05,39,0)" xlink:href="#V"/><use transform="matrix(0.05,0,0,0.05,44,0)" xlink:href="#aa"/></g><g id="w"><use transform="matrix(0.05,0,0,0.05,0,0)" xlink:href="#af"/><use transform="matrix(0.05,0,0,0.05,12.950000000000001,0)" xlink:href="#aa"/><use transform="matrix(0.05,0,0,0.05,21.950000000000003,0)" xlink:href="#X"/><use transform="matrix(0.05,0,0,0.05,31.950000000000003,0)" xlink:href="#W"/></g><g id="x"><use transform="matrix(0.05,0,0,0.05,0,0)" xlink:href="#ag"/><use transform="matrix(0.05,0,0,0.05,11.65,0)" xlink:href="#ah"/><use transform="matrix(0.05,0,0,0.05,15.600000000000001,0)" xlink:href="#X"/><use transform="matrix(0.05,0,0,0.05,25.6,0)" xlink:href="#ai"/></g><g id="y"><use transform="matrix(0.05,0,0,0.05,0,0)" xlink:href="#X"/><use transform="matrix(0.05,0,0,0.05,10,0)" xlink:href="#Y"/><use transform="matrix(0.05,0,0,0.05,19,0)" xlink:href="#X"/><use transform="matrix(0.05,0,0,0.05,29,0)" xlink:href="#Z"/><use transform="matrix(0.05,0,0,0.05,39,0)" xlink:href="#V"/><use transform="matrix(0.05,0,0,0.05,44,0)" xlink:href="#aa"/></g><g id="z"><use transform="matrix(0.05,0,0,0.05,0,0)" xlink:href="#ao"/><use transform="matrix(0.05,0,0,0.05,12,0)" xlink:href="#X"/><use transform="matrix(0.05,0,0,0.05,22,0)" xlink:href="#ac"/><use transform="matrix(0.05,0,0,0.05,32,0)" xlink:href="#W"/><use transform="matrix(0.05,0,0,0.05,37.95,0)" xlink:href="#al"/><use transform="matrix(0.05,0,0,0.05,46.95,0)" xlink:href="#ap"/></g><g id="A"><use transform="matrix(0.05,0,0,0.05,0,0)" xlink:href="#aj"/><use transform="matrix(0.05,0,0,0.05,5,0)" xlink:href="#ak"/><use transform="matrix(0.05,0,0,0.05,15,0)" xlink:href="#W"/></g><g id="B"><use transform="matrix(0.05,0,0,0.05,0,0)" xlink:href="#ac"/><use transform="matrix(0.05,0,0,0.05,10,0)" xlink:href="#Z"/></g><g id="C"><use transform="matrix(0.05,0,0,0.05,0,0)" xlink:href="#X"/><use transform="matrix(0.05,0,0,0.05,10,0)" xlink:href="#Y"/><use transform="matrix(0.05,0,0,0.05,19,0)" xlink:href="#X"/><use transform="matrix(0.05,0,0,0.05,29,0)" xlink:href="#Z"/><use transform="matrix(0.05,0,0,0.05,39,0)" xlink:href="#V"/></g><g id="D"><use transform="matrix(0.05,0,0,0.05,0,0)" xlink:href="#aq"/><use transform="matrix(0.05,0,0,0.05,10.5,0)" xlink:href="#aq"/><use transform="matrix(0.05,0,0,0.05,21,0)" xlink:href="#ah"/><use transform="matrix(0.05,0,0,0.05,24.95,0)" xlink:href="#Z"/><use transform="matrix(0.05,0,0,0.05,34.95,0)" xlink:href="#ar"/><use transform="matrix(0.05,0,0,0.05,38.900000000000006,0)" xlink:href="#al"/><use transform="matrix(0.05,0,0,0.05,47.900000000000006,0)" xlink:href="#U"/><use transform="matrix(0.05,0,0,0.05,57.900000000000006,0)" xlink:href="#am"/><use transform="matrix(0.05,0,0,0.05,67.9,0)" xlink:href="#X"/><use transform="matrix(0.05,0,0,0.05,77.9,0)" xlink:href="#as"/><use transform="matrix(0.05,0,0,0.05,88.4,0)" xlink:href="#as"/></g><g id="E"><use transform="matrix(0.05,0,0,0.05,0,0)" xlink:href="#at"/><use transform="matrix(0.05,0,0,0.05,14,0)" xlink:href="#X"/><use transform="matrix(0.05,0,0,0.05,24,0)" xlink:href="#V"/></g><g id="F"><use transform="matrix(0.05,0,0,0.05,0,0)" xlink:href="#ac"/><use transform="matrix(0.05,0,0,0.05,10,0)" xlink:href="#ar"/><use transform="matrix(0.05,0,0,0.05,13.949999999999998,0)" xlink:href="#ar"/></g><path d="M127-220V0H93v-220H8v-28h204v28h-85" id="av"/><g id="G"><use transform="matrix(0.05,0,0,0.05,0,0)" xlink:href="#av"/><use transform="matrix(0.05,0,0,0.05,10.3,0)" xlink:href="#ah"/><use transform="matrix(0.05,0,0,0.05,14.25,0)" xlink:href="#au"/><use transform="matrix(0.05,0,0,0.05,29.200000000000003,0)" xlink:href="#X"/><use transform="matrix(0.05,0,0,0.05,39.2,0)" xlink:href="#ar"/><use transform="matrix(0.05,0,0,0.05,43.150000000000006,0)" xlink:href="#ah"/><use transform="matrix(0.05,0,0,0.05,47.10000000000001,0)" xlink:href="#Z"/><use transform="matrix(0.05,0,0,0.05,57.1,0)" xlink:href="#X"/></g><path d="M205 0l-28-72H64L36 0H1l101-248h38L239 0h-34zm-38-99l-47-123c-12 45-31 82-46 123h93" id="aw"/><g id="H"><use transform="matrix(0.05,0,0,0.05,0,0)" xlink:href="#aw"/><use transform="matrix(0.05,0,0,0.05,12,0)" xlink:href="#am"/><use transform="matrix(0.05,0,0,0.05,22,0)" xlink:href="#am"/></g><g id="I"><use transform="matrix(0.05,0,0,0.05,0,0)" xlink:href="#ac"/><use transform="matrix(0.05,0,0,0.05,10,0)" xlink:href="#Z"/></g><path d="M30 0v-248h187v28H63v79h144v27H63v87h162V0H30" id="ax"/><g id="J"><use transform="matrix(0.05,0,0,0.05,0,0)" xlink:href="#ax"/><use transform="matrix(0.05,0,0,0.05,12,0)" xlink:href="#am"/><use transform="matrix(0.05,0,0,0.05,22,0)" xlink:href="#ah"/><use transform="matrix(0.05,0,0,0.05,25.950000000000003,0)" xlink:href="#V"/></g><path d="M30-248c118-7 216 8 213 122C240-48 200 0 122 0H30v-248zM63-27c89 8 146-16 146-99s-60-101-146-95v194" id="ay"/><g id="K"><use transform="matrix(0.05,0,0,0.05,0,0)" xlink:href="#ay"/><use transform="matrix(0.05,0,0,0.05,12.950000000000001,0)" xlink:href="#X"/><use transform="matrix(0.05,0,0,0.05,22.950000000000003,0)" xlink:href="#ar"/><use transform="matrix(0.05,0,0,0.05,26.900000000000002,0)" xlink:href="#X"/><use transform="matrix(0.05,0,0,0.05,36.900000000000006,0)" xlink:href="#V"/><use transform="matrix(0.05,0,0,0.05,41.900000000000006,0)" xlink:href="#X"/></g><g id="L"><use transform="matrix(0.05,0,0,0.05,0,0)" xlink:href="#af"/><use transform="matrix(0.05,0,0,0.05,12.950000000000001,0)" xlink:href="#ab"/><use transform="matrix(0.05,0,0,0.05,22.950000000000003,0)" xlink:href="#am"/><use transform="matrix(0.05,0,0,0.05,32.95,0)" xlink:href="#ac"/><use transform="matrix(0.05,0,0,0.05,42.95,0)" xlink:href="#V"/><use transform="matrix(0.05,0,0,0.05,47.95,0)" xlink:href="#X"/></g><g id="M"><use transform="matrix(0.05,0,0,0.05,0,0)" xlink:href="#V"/><use transform="matrix(0.05,0,0,0.05,5,0)" xlink:href="#ap"/><use transform="matrix(0.05,0,0,0.05,15,0)" xlink:href="#X"/></g><path d="M141 0L90-78 38 0H4l68-98-65-92h35l48 74 47-74h35l-64 92 68 98h-35" id="az"/><g id="N"><use transform="matrix(0.05,0,0,0.05,0,0)" xlink:href="#aq"/><use transform="matrix(0.05,0,0,0.05,10.5,0)" xlink:href="#aq"/><use transform="matrix(0.05,0,0,0.05,21,0)" xlink:href="#X"/><use transform="matrix(0.05,0,0,0.05,31,0)" xlink:href="#az"/><use transform="matrix(0.05,0,0,0.05,40,0)" xlink:href="#V"/><use transform="matrix(0.05,0,0,0.05,45,0)" xlink:href="#X"/><use transform="matrix(0.05,0,0,0.05,55,0)" xlink:href="#Z"/><use transform="matrix(0.05,0,0,0.05,65,0)" xlink:href="#am"/><use transform="matrix(0.05,0,0,0.05,75,0)" xlink:href="#X"/><use transform="matrix(0.05,0,0,0.05,85,0)" xlink:href="#am"/><use transform="matrix(0.05,0,0,0.05,95,0)" xlink:href="#as"/><use transform="matrix(0.05,0,0,0.05,105.5,0)" xlink:href="#as"/></g><g id="O"><use transform="matrix(0.05,0,0,0.05,0,0)" xlink:href="#ao"/><use transform="matrix(0.05,0,0,0.05,12,0)" xlink:href="#X"/><use transform="matrix(0.05,0,0,0.05,22,0)" xlink:href="#V"/><use transform="matrix(0.05,0,0,0.05,27,0)" xlink:href="#V"/><use transform="matrix(0.05,0,0,0.05,32,0)" xlink:href="#ah"/><use transform="matrix(0.05,0,0,0.05,35.95,0)" xlink:href="#Z"/><use transform="matrix(0.05,0,0,0.05,45.95,0)" xlink:href="#ad"/><use transform="matrix(0.05,0,0,0.05,55.95,0)" xlink:href="#aa"/></g><g id="P"><use transform="matrix(0.05,0,0,0.05,0,0)" xlink:href="#am"/><use transform="matrix(0.05,0,0,0.05,10,0)" xlink:href="#ac"/><use transform="matrix(0.05,0,0,0.05,20,0)" xlink:href="#V"/><use transform="matrix(0.05,0,0,0.05,25,0)" xlink:href="#ac"/></g><g id="Q"><use transform="matrix(0.05,0,0,0.05,0,0)" xlink:href="#ab"/><use transform="matrix(0.05,0,0,0.05,10,0)" xlink:href="#ac"/><use transform="matrix(0.05,0,0,0.05,20,0)" xlink:href="#aa"/><use transform="matrix(0.05,0,0,0.05,29,0)" xlink:href="#aa"/><use transform="matrix(0.05,0,0,0.05,38,0)" xlink:href="#ai"/><use transform="matrix(0.05,0,0,0.05,50.95,0)" xlink:href="#ak"/><use transform="matrix(0.05,0,0,0.05,60.95,0)" xlink:href="#W"/><use transform="matrix(0.05,0,0,0.05,66.9,0)" xlink:href="#am"/></g><path d="M30 0v-248h33v221h125V0H30" id="aA"/><g id="R"><use transform="matrix(0.05,0,0,0.05,0,0)" xlink:href="#aA"/><use transform="matrix(0.05,0,0,0.05,10,0)" xlink:href="#ak"/><use transform="matrix(0.05,0,0,0.05,20,0)" xlink:href="#ad"/><use transform="matrix(0.05,0,0,0.05,30,0)" xlink:href="#ak"/><use transform="matrix(0.05,0,0,0.05,40,0)" xlink:href="#U"/><use transform="matrix(0.05,0,0,0.05,50,0)" xlink:href="#V"/></g><g id="S"><use transform="matrix(0.05,0,0,0.05,0,0)" xlink:href="#V"/><use transform="matrix(0.05,0,0,0.05,5,0)" xlink:href="#ap"/><use transform="matrix(0.05,0,0,0.05,15,0)" xlink:href="#X"/></g></defs></g></svg>